<svg xmlns="http://www.w3.org/2000/svg" xmlns:xlink="http://www.w3.org/1999/xlink" width="20.933" height="20.933" viewBox="0 0 20.933 20.933">
  <defs>
    <clipPath id="clip-path">
      <rect id="Rectángulo_87" data-name="Rectángulo 87" width="20.933" height="20.933" transform="translate(221 755)" fill="#fff" stroke="#707070" stroke-width="1"/>
    </clipPath>
  </defs>
  <g id="Grupo_16" data-name="Grupo 16" transform="translate(-222 -755)">
    <path id="Trazado_145" data-name="Trazado 145" d="M2451.252,767.874l.826.314v2.328l5.065,2.266v1.207l-6.362-3.035-.077-3.3Z" transform="translate(-2225)" fill="#fdb846"/>
    <g id="Grupo_15" data-name="Grupo 15">
      <path id="Trazado_144" data-name="Trazado 144" d="M2454.25,756.719l1.827,1.195-5.827,3.227s7.305,4.642,7.094,4.748-3.829,2.165-3.829,2.165l-6.337-4.093,3.459-1.769-2.931-2.139Z" transform="translate(-2225)" fill="#fdb846"/>
      <g id="Enmascarar_grupo_7" data-name="Enmascarar grupo 7" transform="translate(1)" clip-path="url(#clip-path)">
        <path id="open-box" d="M20.7,9.059,17.805,7.508l2.311-1.557a.444.444,0,0,0-.05-.766L13.549,1.926a.444.444,0,0,0-.433.02l-2.65,1.642L7.816,1.945a.444.444,0,0,0-.433-.02L.866,5.185a.444.444,0,0,0-.05.766L3.128,7.508.234,9.059a.444.444,0,0,0-.017.774l6.455,3.825a.444.444,0,0,0,.436.009l2.913-1.562v6.628L4.41,15.921V13.358a.444.444,0,1,0-.889,0V16.2a.444.444,0,0,0,.245.4l6.5,3.258.013.006.021.009.033.012.02.006.037.008.019,0,.05,0h.006a.437.437,0,0,0,.057,0l.014,0,.041-.009.019-.006.035-.013.021-.009.012-.005,6.5-3.258a.444.444,0,0,0,.245-.4V13.358a.444.444,0,0,0-.889,0v2.563l-5.612,2.813V12.106l2.913,1.562a.444.444,0,0,0,.436-.009l6.455-3.825a.444.444,0,0,0-.017-.774ZM10.466,10.847,4.9,7.548l5.568-2.935,5.568,2.935Zm2.907-8.015,5.614,2.808L16.939,7.02,11.36,4.079Zm-5.815,0L9.572,4.079,3.993,7.02,1.945,5.639ZM6.91,12.766,1.349,9.47,4,8.049l5.561,3.3Zm7.113,0-2.652-1.422,5.561-3.3L19.584,9.47Z" transform="translate(221 754.578)"/>
      </g>
    </g>
  </g>
</svg>
