<svg xmlns="http://www.w3.org/2000/svg" xmlns:xlink="http://www.w3.org/1999/xlink" width="20.933" height="20.933" viewBox="0 0 20.933 20.933">
  <defs>
    <clipPath id="clip-path">
      <rect id="Rectángulo_86" data-name="Rectángulo 86" width="20.933" height="20.933" transform="translate(325 755)" fill="#fff" stroke="#707070" stroke-width="1"/>
    </clipPath>
  </defs>
  <g id="Grupo_17" data-name="Grupo 17" transform="translate(-319 -755)">
    <ellipse id="Elipse_55" data-name="Elipse 55" cx="3.5" cy="4" rx="3.5" ry="4" transform="translate(326 759)" fill="#fdb846"/>
    <g id="Enmascarar_grupo_6" data-name="Enmascarar grupo 6" transform="translate(-6)" clip-path="url(#clip-path)">
      <path id="user_1_" data-name="user(1)" d="M17.868,3.066A10.467,10.467,0,0,0,.621,14.02a.426.426,0,0,0,.8-.289,9.615,9.615,0,1,1,16.014,3.356l-.061.065c-.036.038-.072.077-.109.114a9.626,9.626,0,0,1-13.6,0l-.059-.061c0-.039,0-.078,0-.116q0-.129,0-.256c0-.028,0-.057,0-.085,0-.057.005-.113.01-.169,0-.034.006-.067.009-.1,0-.051.009-.1.014-.152s.009-.071.013-.107.012-.1.019-.144.012-.072.018-.108.015-.093.024-.139.014-.073.022-.109.018-.091.028-.136.017-.073.026-.109.021-.089.033-.133.02-.073.03-.109.024-.087.037-.13.023-.072.034-.108.027-.085.042-.128S4,14.8,4.013,14.76s.03-.084.046-.126.027-.07.042-.105.033-.083.051-.123l.045-.1c.018-.041.036-.081.055-.121l.049-.1q.029-.06.059-.119l.052-.1.064-.117.055-.1.068-.115.059-.1.072-.112.062-.093.077-.11.065-.09.081-.107.068-.088.085-.1.071-.085.09-.1.073-.082.094-.1.076-.079.1-.1.078-.076.1-.095.079-.072c.036-.031.072-.062.109-.093l.08-.068.115-.091.08-.063c.041-.031.082-.06.123-.09l.078-.057c.046-.032.092-.063.139-.094l.068-.046c.061-.039.122-.078.184-.115l.029-.018q.108-.065.218-.125l.077-.04c.049-.026.1-.052.147-.077l.1-.047L7.6,10.86a4.146,4.146,0,0,0,5.743,0,6.938,6.938,0,0,1,3.411,3.472.426.426,0,1,0,.78-.343,7.68,7.68,0,0,0-3.622-3.8,4.156,4.156,0,0,0-3.44-6.5.426.426,0,1,0,0,.852,3.3,3.3,0,0,1,2.456,5.522h0a3.3,3.3,0,0,1-4.911,0h0A3.3,3.3,0,0,1,8.139,5.5a.426.426,0,0,0-.6-.606,4.152,4.152,0,0,0-.514,5.292l-.012.006-.1.051c-.05.026-.1.052-.151.079l-.1.059-.139.08-.106.065-.131.082-.105.07-.126.085-.1.074-.121.088-.1.078L5.61,11.1l-.1.081-.112.1-.1.084-.108.1-.092.087-.105.1-.088.09-.1.108-.084.092c-.034.037-.067.076-.1.114l-.079.092c-.033.04-.066.081-.1.121l-.073.091c-.034.044-.067.089-.1.134l-.063.084c-.042.058-.083.117-.123.177l-.032.047q-.075.112-.146.227l-.048.08c-.031.051-.062.1-.091.154-.018.032-.036.065-.054.1s-.052.094-.077.141-.036.071-.054.106-.046.091-.069.138-.035.074-.052.111-.042.091-.062.137-.033.076-.048.115-.038.092-.057.138-.03.078-.045.117-.035.093-.051.14-.028.08-.041.12-.031.094-.046.141-.025.081-.037.121-.028.1-.041.144-.022.081-.033.122-.024.1-.036.146-.019.082-.028.123-.021.1-.031.15-.016.082-.024.123-.018.1-.026.154-.013.081-.019.121-.014.106-.021.159-.01.079-.015.119c-.006.056-.011.112-.016.168,0,.037-.007.075-.01.112,0,.063-.008.126-.011.189,0,.031,0,.062,0,.094q-.005.142-.005.285c0,.1,0,.2.008.308a.435.435,0,0,0,.009.073v.006a.42.42,0,0,0,.022.067l0,.006a.424.424,0,0,0,.032.061l0,.007a.433.433,0,0,0,.042.053l0,0,.056.06c.042.045.085.091.129.135a10.479,10.479,0,0,0,14.8,0c.044-.044.087-.09.129-.135l.056-.06a10.466,10.466,0,0,0-.185-14.609Z" transform="translate(325 754.999)"/>
    </g>
  </g>
</svg>
