<svg xmlns="http://www.w3.org/2000/svg" xmlns:xlink="http://www.w3.org/1999/xlink" width="25" height="25" viewBox="0 0 25 25">
  <defs>
    <clipPath id="clip-path">
      <rect id="Rectángulo_380" data-name="Rectángulo 380" width="25" height="25" transform="translate(325 52)" fill="#fff" stroke="#707070" stroke-width="1"/>
    </clipPath>
  </defs>
  <g id="Enmascarar_grupo_23" data-name="Enmascarar grupo 23" transform="translate(-325 -52)" clip-path="url(#clip-path)">
    <g id="history" transform="translate(325 51.852)">
      <g id="Grupo_237" data-name="Grupo 237">
        <path id="Trazado_246" data-name="Trazado 246" d="M13.656,1.305A11.348,11.348,0,0,0,2.314,12.616a13.13,13.13,0,0,0,.407,3.52l-1.528-.891a.793.793,0,1,0-.8,1.371L3.974,18.7,4,18.712a.784.784,0,0,0,.119.05.848.848,0,0,0,.083.027.821.821,0,0,0,.1.013c.024,0,.049.01.073.01s.027,0,.041-.006.025,0,.038,0,.037-.01.057-.013a.814.814,0,0,0,.111-.027.778.778,0,0,0,.091-.037.751.751,0,0,0,.095-.054.725.725,0,0,0,.157-.136.725.725,0,0,0,.063-.081c.011-.016.025-.027.034-.043s.007-.026.013-.039.027-.041.037-.064l1.424-3.527a.793.793,0,1,0-1.471-.594L4.333,16A11.756,11.756,0,0,1,3.9,12.648,9.755,9.755,0,1,1,13.657,22.4a.794.794,0,1,0,0,1.587,11.343,11.343,0,1,0,0-22.685Z" fill="#1d1d1b"/>
        <path id="Trazado_247" data-name="Trazado 247" d="M13.353,14.174a.785.785,0,0,0,.25.051c.018,0,.035.011.053.011a.786.786,0,0,0,.269-.053.7.7,0,0,0,.07-.033.793.793,0,0,0,.182-.121c.012-.011.028-.015.041-.027l4.955-4.955A.794.794,0,0,0,18.05,7.924L13.47,12.5,9.36,10.782a.794.794,0,0,0-.614,1.464l4.6,1.927h0Z" fill="#1d1d1b"/>
      </g>
    </g>
  </g>
</svg>
