<svg xmlns="http://www.w3.org/2000/svg" xmlns:xlink="http://www.w3.org/1999/xlink" width="13" height="13" viewBox="0 0 13 13">
  <defs>
    <clipPath id="clip-path">
      <rect id="Rectángulo_334" data-name="Rectángulo 334" width="13" height="13" transform="translate(43 481)" fill="#fff" stroke="#707070" stroke-width="1"/>
    </clipPath>
  </defs>
  <g id="Enmascarar_grupo_15" data-name="Enmascarar grupo 15" transform="translate(-43 -481)" clip-path="url(#clip-path)">
    <g id="settings" transform="translate(43 481)">
      <g id="Grupo_204" data-name="Grupo 204">
        <g id="Grupo_203" data-name="Grupo 203">
          <path id="Trazado_214" data-name="Trazado 214" d="M12.42,5.245c-.244-.037-.5-.072-.746-.1a.074.074,0,0,1-.063-.052,5.276,5.276,0,0,0-.5-1.2A.074.074,0,0,1,11.12,3.8c.154-.2.307-.4.454-.6a.685.685,0,0,0-.067-.887l-.822-.822A.685.685,0,0,0,9.8,1.426c-.2.147-.4.3-.6.454a.074.074,0,0,1-.082.007,5.276,5.276,0,0,0-1.2-.5.074.074,0,0,1-.052-.063c-.033-.251-.068-.5-.1-.746A.685.685,0,0,0,7.081,0H5.919a.685.685,0,0,0-.674.58c-.037.244-.072.5-.1.746a.074.074,0,0,1-.052.063,5.278,5.278,0,0,0-1.2.5A.074.074,0,0,1,3.8,1.88c-.2-.154-.4-.307-.6-.454a.685.685,0,0,0-.887.067l-.822.822a.685.685,0,0,0-.067.887c.147.2.3.4.454.6a.074.074,0,0,1,.007.082,5.277,5.277,0,0,0-.5,1.2.074.074,0,0,1-.063.052c-.25.033-.5.068-.746.1A.685.685,0,0,0,0,5.919V7.081a.685.685,0,0,0,.58.674c.245.037.5.072.746.1a.074.074,0,0,1,.063.052,5.277,5.277,0,0,0,.5,1.2A.074.074,0,0,1,1.88,9.2c-.154.2-.307.4-.454.6a.685.685,0,0,0,.067.887l.822.822a.685.685,0,0,0,.887.067c.2-.147.4-.3.6-.454a.074.074,0,0,1,.082-.007,5.277,5.277,0,0,0,1.2.5.074.074,0,0,1,.052.063c.033.251.068.5.1.746a.685.685,0,0,0,.674.58H7.081a.685.685,0,0,0,.674-.58c.037-.244.072-.5.1-.746a.074.074,0,0,1,.052-.063,5.279,5.279,0,0,0,1.2-.5.074.074,0,0,1,.082.007c.2.154.4.307.6.454a.685.685,0,0,0,.887-.067l.822-.822a.685.685,0,0,0,.067-.887c-.147-.2-.3-.4-.454-.6a.074.074,0,0,1-.007-.082,5.277,5.277,0,0,0,.5-1.2.074.074,0,0,1,.063-.052c.25-.033.5-.068.746-.1A.685.685,0,0,0,13,7.081V5.919A.685.685,0,0,0,12.42,5.245Zm-.028,1.837a.075.075,0,0,1-.062.074c-.241.036-.488.071-.735.1a.679.679,0,0,0-.569.493,4.671,4.671,0,0,1-.441,1.065.68.68,0,0,0,.054.752c.152.2.3.4.447.592a.075.075,0,0,1-.008.1l-.822.822a.075.075,0,0,1-.1.008c-.2-.145-.395-.295-.592-.447a.68.68,0,0,0-.752-.054,4.671,4.671,0,0,1-1.065.441.68.68,0,0,0-.493.569c-.032.247-.067.494-.1.735a.075.075,0,0,1-.074.062H5.919a.074.074,0,0,1-.074-.062c-.036-.24-.071-.487-.1-.735a.68.68,0,0,0-.493-.569,4.669,4.669,0,0,1-1.065-.441.68.68,0,0,0-.752.054c-.2.152-.4.3-.592.447a.075.075,0,0,1-.1-.008l-.822-.822a.074.074,0,0,1-.008-.1c.145-.2.3-.395.447-.592a.68.68,0,0,0,.054-.752,4.67,4.67,0,0,1-.441-1.065A.68.68,0,0,0,1.4,7.258c-.247-.032-.494-.067-.735-.1a.075.075,0,0,1-.062-.074V5.919a.075.075,0,0,1,.062-.074c.241-.036.488-.071.735-.1a.679.679,0,0,0,.569-.493,4.668,4.668,0,0,1,.441-1.065.68.68,0,0,0-.054-.752c-.151-.2-.3-.4-.447-.592a.075.075,0,0,1,.008-.1l.822-.822a.075.075,0,0,1,.1-.008c.2.145.395.295.592.447a.68.68,0,0,0,.752.054,4.67,4.67,0,0,1,1.065-.441A.68.68,0,0,0,5.742,1.4c.032-.247.067-.494.1-.735A.075.075,0,0,1,5.919.607H7.081a.075.075,0,0,1,.074.062c.036.24.071.487.1.735a.68.68,0,0,0,.493.569,4.672,4.672,0,0,1,1.065.441.68.68,0,0,0,.752-.054c.2-.152.4-.3.592-.447a.074.074,0,0,1,.1.008l.822.822a.075.075,0,0,1,.008.1c-.145.2-.3.4-.447.592a.68.68,0,0,0-.054.752,4.67,4.67,0,0,1,.441,1.065.679.679,0,0,0,.569.493c.247.032.494.067.735.1a.075.075,0,0,1,.062.074V7.081Z"/>
        </g>
      </g>
      <g id="Grupo_206" data-name="Grupo 206">
        <g id="Grupo_205" data-name="Grupo 205">
          <path id="Trazado_215" data-name="Trazado 215" d="M6.5,3.678A2.822,2.822,0,1,0,9.322,6.5,2.825,2.825,0,0,0,6.5,3.678Zm0,5.036A2.215,2.215,0,1,1,8.715,6.5,2.217,2.217,0,0,1,6.5,8.715Z"/>
        </g>
      </g>
    </g>
  </g>
</svg>
